<svg xmlns="http://www.w3.org/2000/svg" viewBox="0 0 1038 540" width="1038" height="540">
	<style>
		tspan { white-space:pre }
	</style>
	<path id="读书 " fill="#000000" d="M175.5 194.5L179.5 209L433 209C429.5 231 424 260 419 280L424 283.5C446 267 473.5 239.5 489.5 219.5C499.5 219 505 217.5 509 214L458 165.5L429 194.5L351.5 194.5L351.5 133.5L463 133.5C470 133.5 475 131 476.5 125.5C456.5 107 422.5 81.5 422.5 81.5L393.5 119.5L351.5 119.5L351.5 67C363.5 65 367.5 60.5 368.5 54L296.5 47.5L296.5 119.5L196.5 119.5L200.5 133.5L296.5 133.5L296.5 194.5ZM216 229C235 241 255.5 264 262.5 284C309 307 335 217 220 225ZM193.5 294.5C212 307 233 331 239.5 352C286 376 314 287 197.5 290.5ZM66.5 55C85 77 107 109.5 115 138.5C167.5 172.5 209 72.5 71 52ZM201 389C183 397.5 164.5 405.5 147.5 413L147.5 206.5C159.5 204.5 165.5 200.5 168 197L119.5 157L93.5 183L31 183L35.5 197.5L93 197.5L93 413.5C93 424.5 89.5 429 67 441L108 503C114 499 120.5 491.5 124.5 480.5C160.5 445 189.5 411.5 203 394ZM352 400.5C386.5 428 430.5 472.5 449.5 510C507.5 539 532.5 427 356.5 396.5ZM417.5 364L357 364C371.5 328.5 380.5 287 385.5 238C399 238 403 234.5 404.5 229L323.5 217.5C324 274.5 318 323 304 364L168 364L172 378.5L298.5 378.5C273 441 224.5 484 145.5 512L148 518C256.5 492.5 317 449 351 378.5L490 378.5C497 378.5 502.5 376 503.5 370.5C482.5 351.5 448 324.5 448 324.5ZM851.5 70C882 92.5 919.5 130.5 937 164C1000.5 191.5 1026.5 70 855.5 66.5ZM773 173.5L849.5 173.5L841 285L773 285ZM943.5 255.5L912.5 285L900.5 285L908 181.5C917.5 180 922 178 925.5 174L869 132L845.5 159.5L773 159.5L773 69C785 67.5 788.5 62.5 789.5 56L710.5 48.5L710.5 159.5L580.5 159.5L585 173.5L710.5 173.5L710.5 285L544 285L548.5 299.5L710.5 299.5L710.5 516.5L722.5 516.5C745.5 516.5 773 500.5 773 494L773 299.5L917 299.5C914 368 909 409 899 418C895.5 421 891.5 422 883.5 422C873.5 422 838.5 420 817.5 418.5L817 424.5C839 428.5 857.5 436.5 866.5 445C875 453.5 877 467.5 876.5 485C907 485 926.5 479 941.5 467.5C966 450 974 403 978.5 309C988.5 308 994.5 304.5 998 300.5Z" />
</svg>