<svg xmlns="http://www.w3.org/2000/svg" viewBox="0 0 930 576" width="930" height="576">
	<style>
		tspan { white-space:pre }
	</style>
	<path id="读书 " fill="#000000" d="M313.31 378.72Q315.81 377.72 323.31 384.22Q331.31 390.22 333.81 390.22Q336.31 390.22 359.81 414.22Q369.31 423.22 379.31 438.72Q389.81 454.22 393.81 464.22Q396.31 471.22 403.31 487.72Q410.31 503.72 409.31 513.22Q408.31 521.72 404.81 526.72Q401.31 531.72 396.31 531.72Q391.81 531.72 385.31 527.72Q378.81 523.72 378.81 521.22Q378.81 518.22 375.81 517.22Q372.81 515.72 371.31 512.22Q369.81 507.72 360.81 502.22Q352.31 496.72 347.31 497.22Q343.81 497.72 342.31 497.22Q341.31 496.22 341.31 492.72Q341.31 487.22 349.31 477.72Q356.31 470.22 355.81 464.72Q355.81 459.22 348.81 440.72Q339.31 415.72 319.31 393.22Q315.81 389.22 313.81 387.22Q311.81 384.72 310.81 383.22Q310.31 381.22 310.81 380.22Q311.81 379.22 313.31 378.72ZM59.81 106.22Q60.81 103.72 63.31 103.22Q66.31 102.72 75.31 103.72Q89.31 104.72 101.31 113.22Q113.31 121.22 114.31 124.22Q115.81 127.22 117.81 126.22Q120.31 124.72 129.81 131.72Q139.81 138.22 141.81 138.22Q143.81 138.22 149.81 144.22Q155.81 150.22 155.81 152.22Q155.81 154.22 159.31 158.22Q165.81 165.72 154.81 178.72Q151.81 183.22 148.31 184.72Q145.31 185.72 137.31 186.22Q124.81 186.72 123.31 184.72Q122.31 182.72 117.81 182.72Q113.81 182.72 113.81 180.72Q113.81 178.22 109.31 178.22Q103.31 178.22 86.31 196.72Q69.31 214.72 65.81 224.72Q64.81 228.72 63.31 228.72Q61.81 228.72 57.31 237.22Q53.31 245.72 47.81 252.72Q44.31 257.72 43.81 259.22Q43.81 260.22 46.31 261.22Q50.31 262.72 54.31 260.22Q58.31 257.72 60.81 257.72Q63.81 257.72 81.31 248.72Q95.81 241.72 103.81 240.72Q112.31 239.22 120.81 243.72L128.31 247.72L127.81 269.72Q126.81 291.72 124.81 299.22Q122.81 304.22 120.31 344.22Q118.31 384.22 119.31 385.72Q120.31 386.72 128.81 378.72Q137.31 370.22 146.81 359.72Q156.81 348.72 161.31 342.72Q175.31 322.72 176.31 330.72Q176.31 330.72 176.31 333.72Q175.81 340.72 174.81 344.22Q173.81 347.22 168.81 367.22Q165.31 382.22 159.81 395.72Q154.31 409.22 151.31 411.22Q148.81 412.72 144.31 421.72Q137.81 436.72 132.31 442.22Q125.31 449.22 124.31 452.72Q123.31 455.72 125.81 465.22Q128.81 476.22 126.81 479.72Q124.81 483.22 115.31 484.22Q110.31 484.72 107.31 483.22Q104.31 481.72 98.81 476.22Q86.31 464.22 75.31 436.72Q73.81 433.22 71.31 429.72Q68.81 425.72 71.31 418.72Q73.81 411.22 74.81 393.72Q76.31 376.22 77.31 370.72Q78.31 365.22 80.81 347.22Q86.31 306.72 91.31 285.22Q92.31 281.22 92.81 278.22Q93.81 274.72 93.81 272.72Q93.81 270.72 93.31 269.72Q92.81 268.72 91.81 268.72Q89.81 268.72 88.31 272.72Q87.31 276.22 78.81 280.22Q70.81 284.22 60.31 291.22Q49.81 297.72 40.31 298.72Q31.81 299.72 26.81 295.72Q22.31 291.72 17.81 280.22Q13.31 268.22 15.31 262.72Q17.31 256.72 31.31 242.72Q46.31 228.22 61.31 209.72Q76.31 191.22 76.31 187.72Q76.31 184.72 77.81 184.72Q79.81 184.72 84.81 175.22L89.81 165.22L84.81 160.22Q80.31 154.72 73.31 143.22Q66.31 131.22 62.31 125.22Q56.31 115.72 59.81 106.22ZM287.31 70.72Q291.31 67.72 302.81 67.72Q314.31 67.72 318.81 70.72Q323.31 74.22 323.81 79.22Q324.81 83.72 334.81 89.22Q346.31 95.22 348.81 99.22Q351.31 102.72 348.81 109.22Q346.31 114.72 344.31 115.72Q342.81 116.22 336.31 115.72Q326.81 114.72 323.81 113.72Q322.31 113.22 321.31 113.72Q320.81 114.22 320.81 115.72Q321.31 118.72 318.31 122.22Q315.31 125.22 313.31 132.22Q311.31 139.22 304.31 149.22Q302.31 152.22 300.81 154.72Q299.81 156.72 299.31 158.22Q298.81 159.72 299.31 160.22Q301.81 160.72 311.81 157.22Q324.81 153.22 343.81 149.72Q363.31 145.72 375.81 145.22Q388.31 144.22 389.81 146.72Q389.81 148.72 401.31 151.22Q434.31 158.72 434.31 177.22Q434.31 180.72 429.31 186.22Q424.81 191.22 421.31 191.22Q418.31 191.22 411.31 197.22Q404.81 202.72 401.31 201.72Q398.31 200.22 392.31 203.22Q386.81 206.22 370.31 212.22Q348.31 220.22 342.31 223.22Q336.81 226.22 335.81 229.72Q332.81 246.72 334.31 245.72Q334.81 244.72 336.31 247.72Q338.31 250.22 339.81 254.22Q341.31 257.72 341.31 260.22Q341.31 264.72 346.31 269.72Q351.31 274.72 355.31 283.72Q358.31 289.72 363.31 295.72Q368.81 301.72 383.81 315.72Q390.31 321.72 389.31 325.72Q388.81 329.22 381.31 332.22Q372.31 335.72 372.31 338.22Q372.31 340.72 361.81 346.72Q351.31 352.72 341.31 358.72Q317.31 372.72 299.31 381.72Q287.81 387.22 275.31 424.72Q270.81 437.72 268.31 438.72Q266.31 439.22 266.31 442.72Q266.31 445.72 253.81 467.22Q241.31 488.72 238.31 491.22Q235.31 493.72 230.31 492.72Q226.31 491.72 219.81 486.22Q213.31 480.72 213.31 478.22Q213.31 475.72 203.81 463.72Q194.81 451.72 194.31 443.72Q193.81 435.22 201.81 427.22Q210.81 418.72 211.31 415.72Q211.81 412.22 205.31 408.22Q195.81 402.72 193.31 391.72Q191.31 380.72 198.81 374.22Q203.81 369.22 219.81 353.72Q236.31 337.72 241.31 335.22Q247.81 332.22 246.31 327.72Q245.31 326.22 242.31 327.22Q238.81 328.72 227.81 329.72Q220.81 330.22 217.81 329.22Q214.81 328.22 210.31 323.22Q196.81 309.72 202.81 297.72Q204.81 293.22 216.31 286.72Q228.31 279.72 231.81 281.22Q234.31 282.22 243.81 271.22Q251.31 262.22 250.31 260.72Q249.81 258.72 236.81 256.22Q225.31 254.22 221.81 246.22Q218.81 238.22 226.31 230.22Q228.81 227.72 233.81 227.22Q238.81 226.22 254.31 226.22Q285.81 226.22 301.81 217.72Q305.81 215.72 313.81 202.22Q320.31 191.72 324.81 188.72Q329.81 185.72 335.81 189.22Q339.31 191.22 341.81 190.22Q344.31 189.22 351.31 183.72Q361.31 175.22 361.31 174.22Q360.81 173.22 354.81 174.22Q348.81 174.72 337.81 177.72Q327.31 180.72 315.81 184.72Q288.81 194.22 288.81 192.72Q288.81 192.22 289.31 191.22Q290.81 189.22 289.31 189.72Q287.81 189.72 281.31 192.72Q275.81 195.22 275.81 195.72Q275.81 195.72 280.81 194.72Q288.81 192.72 284.81 194.72Q281.31 196.72 267.31 201.22Q249.81 207.22 219.81 219.72Q189.81 231.72 181.81 234.22Q174.31 236.22 168.31 240.72Q163.81 243.72 161.81 244.22Q159.81 244.22 156.31 242.22Q151.31 239.22 147.81 232.72Q144.81 225.72 147.31 217.72Q150.31 209.22 151.31 208.22Q152.81 206.72 167.81 203.22Q183.31 199.72 189.81 199.22Q197.31 198.72 213.81 193.22Q230.81 187.72 230.81 185.72Q230.81 183.72 240.81 177.72Q250.81 171.72 257.31 162.22Q262.81 154.72 269.81 140.22Q277.31 125.72 277.31 122.22Q277.31 119.72 266.81 119.22Q251.31 118.22 243.81 116.22Q236.81 113.72 230.31 107.22Q223.81 100.72 222.31 97.22Q221.31 93.22 225.31 89.72Q228.31 87.22 239.31 90.22Q250.31 92.72 258.81 90.22Q267.31 87.22 274.81 85.72Q282.81 83.72 282.81 78.72Q283.31 73.72 287.31 70.72ZM335.81 313.22Q334.81 305.22 333.31 277.72Q332.31 249.72 331.31 249.22Q330.81 249.72 330.31 250.72Q330.31 253.22 327.81 259.22Q325.31 265.22 324.81 270.72Q322.31 292.22 317.31 301.22Q314.81 306.22 314.81 310.22Q314.81 314.22 310.31 322.72Q305.81 330.72 305.81 335.22Q305.81 340.72 315.31 335.22Q319.31 333.22 325.31 328.72Q334.31 323.22 335.31 321.22Q336.81 318.72 335.81 313.22ZM281.81 269.72Q281.81 268.22 279.31 267.72Q277.31 267.22 273.81 268.22Q270.81 268.72 267.81 270.22Q262.81 272.72 256.31 273.22Q248.81 273.22 234.81 284.72Q228.81 289.72 231.31 290.22Q234.31 291.22 247.31 286.72Q260.81 281.72 269.81 279.72Q281.31 276.22 281.81 269.72ZM234.81 371.72Q238.81 363.72 235.81 364.72Q235.31 364.72 233.31 366.72Q230.81 369.72 232.31 371.22Q233.81 372.72 229.31 376.22Q225.31 379.72 228.31 378.72Q231.81 377.72 234.81 371.72ZM804.81 350.22Q810.31 344.22 811.81 344.22Q814.31 344.72 802.81 353.22Q802.81 353.22 801.81 354.22Q801.81 353.22 804.81 350.22ZM816.31 38.22Q817.81 35.72 819.81 36.22Q822.31 36.72 829.81 40.72Q849.81 51.72 858.81 60.22Q868.31 68.22 869.81 77.22Q871.31 85.72 864.31 89.72Q857.81 93.22 850.31 88.22Q846.31 85.22 839.31 79.22Q832.31 72.72 832.31 71.72Q832.31 70.22 827.31 63.22Q822.81 56.22 822.81 52.22Q822.81 47.72 818.81 44.22Q814.81 40.22 816.31 38.22ZM699.81 21.22Q701.81 18.72 702.81 20.72Q704.31 22.72 710.81 26.22Q717.81 29.72 726.31 41.72Q735.31 53.72 738.31 63.72Q741.31 74.72 742.81 79.72Q744.31 84.22 746.81 91.22Q749.31 97.72 750.81 101.72Q752.31 105.22 753.81 113.72Q755.81 128.72 757.31 130.72Q758.81 132.22 770.31 132.22Q784.81 132.22 789.81 136.72Q795.31 140.72 801.31 143.22Q811.31 147.72 820.81 155.72Q830.31 163.22 832.81 168.72Q834.81 174.22 832.81 184.72Q831.31 195.22 827.31 199.22Q822.81 204.22 821.31 204.22Q819.81 204.22 818.31 205.72Q816.81 207.22 813.31 207.22Q810.31 207.22 806.81 211.22Q803.31 214.72 798.81 214.72Q794.31 214.72 794.31 216.22Q794.31 217.72 789.81 219.72Q785.31 221.72 784.31 219.72Q783.81 217.72 778.31 221.22Q772.81 224.22 760.81 230.22Q748.81 235.72 747.31 238.22Q746.31 240.22 745.81 249.22Q744.81 255.72 745.31 257.22Q746.31 258.72 750.31 258.72Q755.81 258.72 759.81 255.72Q763.81 252.72 770.31 252.22Q777.31 251.22 780.31 249.72Q783.81 247.72 786.81 248.72Q790.31 249.22 791.31 247.22Q792.81 245.22 796.31 245.22Q799.81 245.22 805.31 242.22Q810.31 239.72 825.31 237.72Q840.31 235.72 849.81 236.22Q858.31 237.22 864.81 240.72Q871.31 244.22 872.31 244.22Q880.81 246.22 889.81 254.22Q894.31 258.72 895.31 258.72Q897.81 258.72 900.31 268.22Q903.31 277.72 903.81 286.22Q903.81 295.22 902.31 300.72Q900.81 305.72 895.31 318.22Q887.31 337.22 886.81 341.72Q886.31 346.72 874.31 366.22Q862.81 385.22 852.81 398.22Q836.31 418.72 817.81 428.22Q799.81 437.22 793.81 427.72Q791.81 424.22 790.31 424.22Q788.31 424.22 783.81 418.72Q779.31 413.22 779.31 411.22Q779.31 409.22 775.81 408.22Q772.31 407.22 769.31 401.22Q766.81 395.22 763.31 395.22Q760.31 395.22 760.31 393.72Q760.31 391.72 756.81 391.72Q753.31 391.72 748.31 388.22Q743.31 384.22 741.31 384.22Q739.81 384.22 738.81 398.22Q738.31 411.72 738.81 421.22Q739.31 424.72 739.81 476.22Q740.31 555.22 735.31 555.22Q733.81 555.22 734.31 557.22Q734.31 558.22 732.81 559.72Q731.31 560.72 728.81 561.22Q725.31 562.22 722.81 561.72Q720.81 560.72 716.81 556.72Q710.81 550.72 710.81 548.22Q710.81 545.72 708.81 545.72Q706.81 545.72 706.81 543.22Q706.81 540.72 700.31 527.72Q693.81 514.22 692.31 495.72Q691.31 477.72 693.81 477.22Q693.81 477.22 694.81 477.72Q698.31 478.22 699.81 483.72Q700.31 487.72 700.81 487.72Q701.31 487.72 701.81 486.72Q703.31 483.72 701.81 406.72Q700.31 329.72 698.81 326.72Q697.31 323.22 699.81 323.22Q702.31 323.22 702.81 317.22Q703.31 312.22 700.31 311.72Q697.81 311.22 693.31 315.72Q689.31 319.22 686.31 318.22Q684.31 317.72 677.81 320.72Q671.81 323.72 670.31 326.22Q668.81 328.72 666.31 329.22Q664.31 329.22 660.31 332.22Q657.81 333.72 657.81 334.22L661.31 333.72L661.81 334.22Q660.31 335.72 651.81 340.22Q637.31 348.22 635.31 350.22Q633.81 351.72 631.31 351.72Q628.81 351.72 624.81 355.72Q620.81 359.72 618.31 358.72Q615.81 357.72 615.81 359.72Q615.81 361.72 612.31 364.22Q608.81 366.72 605.81 366.72Q602.81 366.72 594.81 373.72Q586.81 380.22 584.81 380.22Q583.31 380.22 580.31 385.72Q577.31 391.22 571.81 392.22Q566.31 392.72 560.31 388.72Q553.31 383.72 550.81 373.72Q548.31 363.22 551.81 353.22Q556.81 339.72 555.31 328.22Q555.31 325.72 554.31 326.22Q552.81 327.22 552.81 325.72Q552.81 323.72 555.81 322.72Q558.81 321.22 558.81 323.22Q558.81 327.72 573.81 317.22Q584.81 309.72 586.81 309.72Q588.81 309.72 590.31 307.72Q591.81 305.22 595.81 302.22L598.31 300.72Q598.31 300.72 596.81 302.72Q594.31 305.72 596.31 307.22Q598.31 308.22 599.31 305.22Q600.81 302.22 602.31 303.22Q604.31 304.22 604.31 302.72Q604.31 300.72 601.81 300.22Q599.81 299.22 604.81 296.22Q609.81 292.72 609.81 294.72Q609.81 298.72 612.81 295.72Q614.31 293.72 615.31 290.72Q617.31 285.22 618.81 285.22Q620.31 284.72 624.81 284.22Q634.31 282.72 633.81 279.72Q632.81 277.72 634.81 276.22Q635.81 275.72 635.81 276.22Q636.31 276.22 635.81 277.22Q634.31 279.22 636.31 279.22Q638.31 279.22 638.31 276.72Q638.31 274.22 641.81 272.22Q645.81 269.72 650.31 269.72Q652.81 269.22 652.31 268.22Q649.31 266.72 653.31 265.22Q658.31 262.72 661.31 262.72Q663.31 262.22 663.31 260.22Q663.31 257.72 683.31 244.22Q703.81 230.72 705.31 228.72Q706.81 226.72 708.31 215.22L709.31 203.22L702.81 203.22Q692.31 203.22 682.81 197.72Q673.81 191.72 668.81 182.22Q665.31 174.72 666.31 174.72Q667.31 174.72 662.31 168.72Q657.31 162.22 657.31 155.22Q657.31 148.22 662.81 145.72Q668.81 142.72 670.81 143.22Q672.81 143.22 676.81 147.22Q680.31 150.72 682.31 151.22Q684.81 151.22 692.81 149.72Q707.81 147.22 709.81 144.72Q712.31 141.72 713.81 124.72Q714.81 105.22 715.31 100.72Q715.81 95.72 714.31 82.72Q712.81 69.22 711.81 60.72Q709.31 32.22 705.31 30.72Q701.31 29.22 699.31 26.22Q697.81 23.22 699.81 21.22ZM861.81 268.72Q861.81 264.22 858.81 263.22Q856.31 262.22 844.81 264.22Q828.81 266.72 789.81 278.72Q750.81 290.72 746.31 294.22Q743.31 296.72 742.31 305.72Q741.31 312.22 740.81 330.22Q740.81 347.72 741.31 350.72Q742.81 357.72 740.31 360.72Q739.31 362.72 741.81 362.72Q744.81 362.72 763.31 360.22Q772.81 358.72 785.81 355.72Q796.81 352.72 796.81 354.22Q791.31 359.22 800.81 359.22Q809.81 359.22 827.81 338.22Q831.31 334.22 839.31 320.72Q847.81 307.22 847.81 305.72Q847.81 303.72 850.31 301.72Q852.81 299.22 855.31 290.72Q857.81 282.22 859.31 278.72Q861.31 274.72 861.81 268.72ZM700.31 273.72Q703.31 273.72 703.31 271.22Q703.31 268.22 702.31 268.22Q701.81 268.22 699.31 271.22Q697.31 273.72 700.31 273.72ZM623.31 288.72Q625.31 288.72 625.31 287.22Q625.31 285.22 623.31 285.22Q621.31 285.22 621.31 287.22Q621.31 288.72 623.31 288.72ZM781.31 363.22Q783.31 363.22 783.31 361.22Q783.31 359.22 782.31 359.22Q781.31 359.22 780.31 361.22Q779.31 363.22 781.31 363.22Z" />
</svg>