<svg xmlns="http://www.w3.org/2000/svg" viewBox="0 0 920 490" width="920" height="490">
	<style>
		tspan { white-space:pre }
	</style>
	<path id="国学 " fill="#000000" d="M286.82 297.38Q282.43 297.87 280.96 299.82Q279.98 301.78 279.01 304.22Q274.12 314.47 267.78 323.75Q261.43 332.54 249.71 339.37Q244.34 340.35 240.43 340.84Q236.53 341.33 232.13 346.21Q228.23 348.65 228.23 350.61Q228.71 352.56 233.11 353.05Q246.29 352.56 258.99 348.65Q271.68 344.26 286.82 337.42Q297.07 334.98 300.98 339.37Q304.89 343.77 301.47 353.05Q300 356.95 299.03 359.88Q298.05 362.81 302.45 365.74Q319.05 373.07 329.3 371.11Q340.04 369.16 347.37 349.14Q349.81 343.28 349.81 338.4Q350.3 333.52 341.51 332.54Q328.81 328.14 318.07 320.33Q307.33 312.52 295.61 302.27Q292.68 299.34 290.24 298.36Q288.29 297.38 286.82 297.38ZM190.14 204.61L186.23 206.56Q176.47 211.45 169.14 217.79Q162.31 223.65 161.82 232.93Q160.36 239.28 164.26 242.7Q168.66 245.62 176.47 240.74Q186.23 231.46 194.05 219.26Q201.86 207.05 190.14 204.61ZM234.09 206.56Q225.79 198.26 222.37 206.07Q219.44 213.89 221.39 219.26Q228.71 224.14 233.11 227.56Q237.99 230.49 230.18 240.74Q219.93 245.14 210.65 250.51Q201.86 255.39 191.12 264.18Q187.7 269.55 188.19 271.5Q189.16 273.46 194.05 272.97Q206.25 268.57 218.95 262.71Q231.64 256.86 245.8 250.51Q254.11 243.67 245.8 230Q237.99 215.84 234.09 206.56ZM218.46 173.36L213.58 166.52Q208.7 164.57 206.74 166.52Q204.79 167.99 201.86 170.43Q195.51 174.34 190.63 178.73Q186.23 182.64 183.3 188.01Q179.4 191.91 180.86 194.84Q182.82 197.29 187.21 197.77Q194.54 194.84 199.91 191.91Q205.28 188.5 213.58 188.01Q220.41 187.52 220.9 183.12Q221.39 178.24 218.46 173.36ZM288.77 67.89L274.12 68.87Q238.97 78.14 207.72 86.93Q176.96 95.72 142.29 113.79L132.52 119.65Q132.04 130.39 136.92 137.71Q141.8 145.04 156.94 142.11L185.26 131.37Q190.14 129.41 191.61 126.48Q193.07 123.55 193.07 119.65Q193.56 109.39 199.42 107.44Q205.77 105 214.55 109.88Q219.93 115.25 222.86 115.74Q225.79 116.23 232.13 112.81Q233.6 110.86 235.06 110.86Q236.53 110.86 238.97 110.86Q247.27 111.35 247.27 106.46Q247.76 101.58 245.8 96.21Q243.36 90.35 244.34 87.42Q245.8 84.49 251.66 83.52Q275.59 85.96 297.56 99.14Q319.54 111.84 325.88 138.2Q326.37 146.02 320.02 148.46Q313.68 150.41 306.35 144.06Q299.03 134.79 292.68 132.83Q286.33 130.39 277.05 137.23Q270.22 140.64 264.36 142.11Q258.5 143.09 250.69 144.06Q241.9 146.99 239.46 152.85Q237.02 158.71 237.99 166.52Q241.9 176.78 247.27 188.01Q253.13 198.75 261.43 211.45Q264.36 214.86 266.8 213.89Q269.24 212.42 272.17 209.49Q274.61 198.26 275.59 188.5Q277.05 178.73 277.05 167.5Q279.5 153.83 290.24 151.87Q300.98 149.92 304.4 162.62Q303.91 170.92 307.82 175.31Q311.72 179.71 307.33 187.03L306.35 190.94Q301.47 213.89 304.4 234.88Q307.33 255.88 318.07 278.83L344.44 316.91Q348.34 320.33 350.79 318.87Q353.71 316.91 354.2 313.01Q356.64 262.71 349.81 218.28Q342.97 173.85 335.65 123.55Q334.67 110.86 331.25 98.65Q328.32 86.45 319.05 74.73Q311.72 71.8 303.42 69.84Q295.61 67.89 288.77 67.89ZM91.51 92.3Q97.37 93.77 100.79 94.75Q104.69 95.72 111.04 95.23Q151.08 76.19 188.68 65.45Q226.27 54.22 268.27 52.27Q279.5 50.31 290.24 50.31Q300.98 49.82 314.16 55.2Q321.49 55.2 330.28 59.1Q339.55 63.01 346.39 71.8Q354.69 97.68 357.13 122.09Q360.06 146.5 363.97 173.36Q365.92 185.57 369.34 196.8Q373.25 208.03 373.73 222.19Q377.64 246.6 380.08 268.57Q383.01 290.55 382.52 316.91L382.52 325.7Q383.5 345.72 380.57 361.35Q378.13 376.97 368.85 397.97L343.46 432.15Q333.7 442.89 325.88 439.96Q318.07 436.54 314.16 427.27Q312.21 418.48 307.33 409.2Q302.93 399.43 292.68 391.13Q277.05 373.55 268.75 372.58Q260.45 371.11 242.87 377.46Q225.3 380.88 209.67 386.74Q194.54 392.11 177.45 393.09Q165.24 396.99 154.01 399.92Q143.27 402.85 130.57 403.83Q127.64 404.32 122.76 403.83Q118.36 403.34 116.9 400.9Q113.48 391.62 116.41 383.81Q119.34 376 118.85 365.74Q119.83 360.86 123.73 360.86Q127.64 360.37 130.57 361.84Q134.96 364.77 138.87 368.18Q142.78 371.11 148.15 373.55Q162.8 367.7 177.93 358.42Q193.56 349.14 208.7 336.45Q221.88 327.17 232.13 310.57Q242.39 293.96 236.04 286.64Q215.04 292.99 196.49 304.71Q177.93 316.43 156.94 326.68Q142.29 336.45 124.22 341.33Q106.64 345.72 107.13 323.75Q107.13 320.33 106.64 317.89Q106.64 315.45 105.18 312.03Q103.71 307.15 105.18 305.2Q107.13 303.24 112.99 302.27Q121.29 300.8 131.06 294.45Q140.82 288.11 144.24 277.85Q143.75 271.5 139.36 269.55Q134.96 267.11 130.57 262.23Q123.73 251.48 122.76 243.18Q121.78 234.88 120.8 226.09Q125.69 216.33 128.13 209.49Q131.06 202.66 135.45 194.84Q138.87 189.47 144.73 185.08Q150.59 180.68 152.05 174.34Q152.54 170.92 147.66 169.94Q143.27 168.96 140.34 168.48Q131.06 162.62 122.76 164.57Q114.95 166.52 112.99 177.27L108.11 188.01Q109.09 193.87 105.67 198.75Q102.74 203.63 103.23 206.56Q99.32 228.05 96.88 247.58Q94.93 266.62 89.55 289.57Q88.09 311.54 87.11 332.54Q86.14 353.05 82.72 377.46Q79.3 381.86 75.39 383.32Q71.98 384.79 68.07 381.37Q55.37 373.55 48.54 366.72Q41.7 359.88 38.77 348.16Q36.82 344.75 33.89 343.77Q31.45 342.79 29.01 342.3Q25.59 335.47 25.59 330.59Q26.08 325.21 26.08 318.87Q25.1 298.36 26.57 280.78Q28.03 262.71 32.91 241.72Q37.31 212.91 40.73 187.52Q44.14 162.13 50.49 132.34Q55.86 115.25 63.68 105.98Q71.49 96.7 91.51 92.3ZM733.11 362.81L731.16 362.81Q722.86 365.74 715.53 367.7Q708.7 369.16 700.88 372.58Q688.68 376.48 678.42 381.37Q668.17 385.76 655.96 389.18Q652.54 390.64 649.61 393.09Q647.17 395.53 647.17 399.92Q649.61 403.83 654.01 406.76Q658.89 409.69 662.8 411.64Q680.37 421.89 696 423.85Q712.11 425.8 730.18 407.73Q738.97 398.46 741.9 380.88Q744.83 363.3 733.11 362.81ZM606.16 245.62L594.44 249.53Q591.02 252.46 592 254.9Q593.46 257.34 597.37 256.37Q601.27 253.93 608.11 251.48Q615.43 248.55 606.16 245.62ZM659.87 189.96L657.91 184.1Q654.98 181.66 654.01 184.1Q653.03 186.54 652.05 188.01Q651.08 193.38 649.12 198.26Q647.66 203.14 648.15 208.52Q646.68 211.45 641.31 214.86Q636.43 217.79 633.5 220.23Q629.59 223.65 629.59 225.61Q629.59 227.07 633.5 229.02Q649.61 230.49 664.75 227.56Q679.89 224.63 697.95 214.37Q702.35 209.98 701.37 208.52Q700.88 206.56 696 206.56L689.16 201.68Q687.21 198.26 686.23 199.24Q685.26 199.73 682.33 202.66Q673.54 213.4 666.7 206.56Q660.36 199.73 659.87 189.96ZM717.48 173.36Q719.93 182.64 725.3 176.29Q730.67 169.45 726.27 167.5Q721.88 165.06 719.93 167.5Q718.46 169.45 717.48 173.36ZM696 160.66L704.79 152.85Q713.58 146.02 715.04 138.2Q716.51 129.9 707.72 136.25Q703.32 141.62 700.88 147.48Q698.44 153.34 696 160.66ZM779.01 128.44Q776.08 127.95 775.1 128.93Q774.12 129.9 773.15 131.37Q770.22 136.25 768.75 140.64Q767.29 145.04 767.29 149.92Q767.29 151.87 768.27 153.83Q769.24 155.29 771.2 154.8Q777.05 150.9 779.5 141.62Q782.43 131.86 779.01 128.44ZM797.56 67.89Q795.12 67.89 793.66 68.87Q792.19 69.36 790.73 70.82Q775.59 84 765.82 97.68Q756.06 111.35 748.73 126.48Q747.76 132.34 750.69 133.81Q753.62 134.79 757.52 128.44Q759.96 120.14 764.85 114.77Q770.22 109.39 778.03 103.05Q791.7 94.75 798.54 95.72Q805.37 96.21 803.42 73.75Q802.93 71.8 800.98 70.33Q799.52 68.38 797.56 67.89ZM728.23 43.48Q732.13 33.22 738.48 33.71Q745.32 33.71 748.73 44.45Q748.73 51.78 756.55 60.57Q764.36 69.36 772.17 68.87Q779.5 62.03 785.36 57.15Q791.21 52.27 797.56 50.31Q805.37 47.87 809.77 51.29Q814.65 54.71 814.16 63.01Q816.12 74.73 815.14 85.96Q814.65 97.19 811.23 109.88Q808.79 125.02 806.35 140.16Q804.4 155.29 799.52 173.36Q798.05 177.75 800 179.22Q801.96 180.68 807.33 180.2Q821.49 179.71 834.67 178.24Q848.34 176.29 862.02 180.2Q871.78 181.66 880.08 184.1Q888.38 186.54 899.12 193.87Q906.45 200.21 904.01 207.54Q901.57 214.37 893.27 216.33Q872.27 217.3 854.2 222.68Q836.62 227.56 814.16 222.19Q811.23 221.7 810.26 220.23Q809.77 218.28 813.19 217.3Q822.46 214.37 830.28 211.45Q838.09 208.03 848.34 201.68Q853.71 197.77 852.74 194.84Q851.76 191.43 846.39 190.94L787.8 201.68Q782.91 204.12 778.52 207.05Q774.12 209.49 769.24 210.47L761.43 209.49Q740.92 215.35 721.88 224.63Q702.84 233.91 681.35 246.6Q677.93 248.55 678.42 250.51Q678.91 252.46 682.33 253.44Q694.54 252.46 706.25 246.6Q718.46 240.25 732.13 232.93Q749.22 220.72 758.01 220.23Q766.8 219.75 784.87 225.12Q789.26 226.58 790.24 231.46Q791.7 236.35 789.75 240.74Q782.91 255.88 769.73 267.6Q757.04 279.32 744.83 296.41Q741.41 302.27 742.87 305.68Q744.83 309.1 751.66 310.08Q764.36 306.66 775.1 306.66Q785.84 306.17 799.52 311.05L823.93 314.96Q828.81 315.94 828.81 319.36Q829.3 322.77 824.91 326.68Q812.21 335.96 801.96 340.35Q792.19 344.75 779.01 347.19Q772.66 348.16 770.71 351.58Q768.75 355 770.22 360.86Q775.1 383.32 775.1 401.87Q775.59 419.94 759.48 443.87L757.52 445.82Q733.6 458.52 708.21 457.05Q682.82 455.59 658.89 438.01Q647.17 431.66 638.87 423.85Q630.57 416.04 620.8 407.73Q614.46 401.87 615.43 395.04Q616.9 388.2 621.78 381.37Q642.78 356.95 665.24 345.72Q687.7 334.49 712.6 322.77Q717 320.82 717.48 317.4Q718.46 313.98 714.55 310.08Q706.25 307.64 705.77 301.78Q705.77 295.43 712.6 292.5Q721.39 288.59 726.27 280.78Q731.64 272.97 737.02 265.16Q737.99 262.23 737.5 261.25Q737.02 259.79 734.09 261.25Q722.86 269.55 712.11 273.95Q701.86 277.85 690.14 282.73Q680.86 286.15 673.05 280.78Q665.24 275.41 660.84 266.13Q659.38 260.27 655.96 258.81Q653.03 257.34 649.12 260.27Q633.01 269.06 617.87 277.36Q602.74 285.18 586.62 299.34Q579.3 309.1 575.39 318.87Q571.49 328.14 567.09 338.4Q564.65 346.21 559.77 348.65Q554.89 351.09 548.54 351.09Q540.24 355.49 534.38 355.49Q529.01 355 520.22 348.16Q509.96 339.37 507.52 334.49Q505.08 329.12 506.55 319.84Q507.52 313.5 506.55 309.59Q505.57 305.68 503.62 300.31Q502.15 296.89 503.62 292.99Q505.57 288.59 509.48 287.62Q516.31 285.18 518.75 281.27Q521.2 276.87 523.15 271.99Q527.05 261.25 534.38 252.46Q541.7 243.18 554.4 232.93Q563.68 230 573.44 227.56Q583.21 225.12 593.46 223.16Q598.83 222.19 599.32 220.72Q600.3 218.77 595.41 213.4L590.53 206.56Q589.07 196.31 588.58 187.03Q588.09 177.27 582.72 167.5Q582.23 164.08 581.74 160.66Q581.74 157.25 583.7 153.83Q590.04 138.69 592.97 124.53Q595.9 109.88 598.34 94.26Q599.81 88.89 602.74 84Q606.16 78.63 611.04 77.66Q620.32 78.14 630.08 84.98Q640.34 91.82 649.12 100.12Q654.01 110.37 654.98 121.11Q655.96 131.86 657.91 143.09Q656.45 145.04 656.45 148.95Q656.94 152.85 660.84 151.87Q663.77 137.23 664.75 123.55Q665.73 109.88 663.77 95.23Q661.82 91.82 660.36 89.37Q659.38 86.93 661.82 86.45Q665.24 86.93 665.24 86.93Q665.73 86.93 665.73 83.52Q666.7 81.07 668.66 79.12Q670.61 77.17 673.54 77.66Q686.23 76.68 693.56 84Q700.88 91.33 697.95 105Q696.98 107.93 697.95 108.91Q699.42 109.39 701.86 106.95Q706.74 100.61 711.62 97.19Q717 93.28 722.37 88.4Q727.25 76.68 726.76 65.94Q726.27 54.71 728.23 43.48Z" />
</svg>