<svg xmlns="http://www.w3.org/2000/svg" viewBox="0 0 1014 560" width="1014" height="560">
	<style>
		tspan { white-space:pre }
	</style>
	<path id="国学 " fill="#000000" d="M341.66 306.55L348.49 307.53Q356.79 307.53 356.79 299.23Q356.79 295.81 355.33 290.93Q356.3 275.79 349.96 266.52Q344.1 256.75 331.89 248.94Q319.2 248.94 309.43 255.77Q305.04 298.74 294.78 340.73Q280.13 345.62 261.58 350.5Q269.88 321.69 280.13 310.46Q292.83 301.67 294.78 285.07Q293.32 275.3 286.48 268.47Q279.16 261.63 278.18 254.8Q280.62 215.25 295.76 187.41Q293.32 176.18 282.09 168.37Q271.34 160.56 259.62 160.07Q236.68 161.05 216.17 177.65Q195.66 194.25 182.48 220.62Q181.01 226.48 176.62 233.31Q163.43 258.7 160.99 290.93Q162.95 292.39 164.9 290.93Q169.29 239.66 219.59 230.38Q225.93 228.92 230.33 228.43Q235.7 235.27 234.23 255.77L210.8 269.45Q188.34 284.58 184.43 309.48Q185.41 320.71 199.08 319.25Q213.73 318.27 223.49 321.2Q223 345.62 213.73 350.99Q204.45 355.87 201.03 355.38Q191.75 358.31 191.75 369.05Q191.75 372.47 192.24 373.94Q192.24 379.31 198.1 393.47L194.2 401.28Q181.99 389.07 170.76 371.98Q168.32 366.61 166.36 366.61Q164.9 366.61 164.9 371.98Q174.66 393.96 188.34 410.07Q182.48 420.32 172.71 425.7Q128.77 389.56 128.77 335.85Q130.23 282.63 154.16 244.05Q158.55 237.71 164.9 229.41Q167.34 218.66 168.8 215.73Q160.5 177.65 136.58 152.26Q133.16 150.79 131.7 152.26Q108.75 236.73 95.56 324.13Q95.07 347.57 100.45 384.68Q117.54 442.79 176.62 463.29Q197.61 459.87 208.84 431.55Q259.14 475.99 325.05 483.8Q332.38 482.34 336.77 482.82L352.4 480.87Q373.88 475.01 389.51 454.5Q405.13 433.51 407.09 410.07Q411.97 390.05 410.99 362.22Q406.11 251.87 389.51 150.3Q379.25 118.57 359.23 102.45Q324.57 69.25 285.99 69.25Q258.65 69.25 230.33 85.85Q221.05 92.2 210.8 96.59Q179.06 113.68 179.06 149.33Q179.06 156.65 180.52 164.95L181.01 165.93Q181.5 165.93 184.43 159.58Q187.85 150.79 191.27 148.35Q227.89 131.75 268.41 121.98Q291.36 111.73 315.29 110.27Q321.15 106.85 334.82 124.91Q350.93 148.84 357.28 182.04Q364.12 214.76 364.12 260.66Q364.12 278.23 363.63 283.12L363.14 306.07L363.14 334.39Q363.14 368.08 359.23 388.1Q355.33 407.63 343.12 419.84Q329.94 433.02 304.55 431.55Q252.79 430.58 212.75 413L212.75 410.56Q212.75 405.68 214.7 402.26Q216.66 400.3 218.61 401.28Q225.93 403.23 237.16 403.23Q252.79 403.23 265.48 398.35L295.76 391.52Q314.8 385.66 319.2 371.01L315.29 311.44L315.29 309Q315.29 301.18 319.2 295.81Q328.96 302.65 341.66 306.55ZM774.27 519.93L775.25 519.93Q780.62 519.93 784.04 515.05Q822.61 463.29 822.12 420.81Q822.61 419.84 822.61 416.42Q822.61 400.3 804.55 369.05Q846.05 364.17 861.19 356.36Q860.7 327.06 832.38 327.06Q826.03 327.06 813.34 329.99Q796.25 331.95 781.11 336.83L807.96 304.6Q821.15 289.46 823.1 268.47Q869.98 246.5 906.11 240.15Q910.5 236.24 910.02 227.45L910.02 207.92Q906.11 190.34 884.62 181.07Q863.14 171.3 833.84 171.79L822.12 173.25L814.31 174.23L805.52 175.7L799.66 175.7Q822.61 142.49 845.56 101.48Q848.98 96.59 849.47 91.71Q848 57.04 819.2 49.72Q803.08 42.88 786.97 43.86Q767.93 49.72 755.72 61.93Q743.51 74.13 744 91.71Q722.52 73.64 715.68 76.09Q712.75 78.04 712.75 83.9Q709.82 88.78 709.82 97.57Q711.77 140.05 746.93 163.98Q733.75 182.53 719.59 190.83Q709.33 196.69 697.12 198.16Q698.1 188.39 694.2 173.25Q690.29 156.65 689.31 127.84Q687.36 122.96 679.06 120.03Q671.25 116.61 661.97 116.61Q655.62 116.61 650.74 118.57Q646.34 120.52 645.37 123.94Q643.9 134.68 643.9 145.42Q643.9 180.09 660.99 205.97Q631.21 213.78 615.09 231.36Q599.47 248.94 586.77 280.19Q577.5 294.35 573.1 304.6Q571.15 306.07 571.15 309.97Q571.15 314.86 573.1 320.23Q574.08 327.55 577.01 333.9L580.91 350.5Q581.89 365.15 598.49 376.87L602.4 377.84Q610.21 377.84 613.14 363.68Q616.07 349.52 616.07 332.92Q615.58 324.62 613.14 318.27Q611.68 304.11 626.81 288.98Q654.64 258.21 701.03 241.12Q711.77 238.68 722.03 234.78Q740.09 228.43 766.46 216.71Q805.04 191.32 857.28 192.3Q862.16 193.76 862.16 196.69Q862.16 201.57 849.47 211.34Q828.96 227.45 812.36 235.27Q797.22 240.64 784.04 246.98Q752.79 260.17 716.66 268.47Q705.43 269.45 699.08 279.21Q692.73 288.98 693.22 302.65Q695.17 311.93 705.91 321.2Q707.87 323.16 711.29 323.16Q714.7 323.16 716.66 321.2Q727.89 306.55 746.93 298.74Q760.6 289.95 774.27 285.07Q776.71 283.61 777.69 283.61Q778.18 283.61 778.18 284.09Q778.18 285.56 770.37 294.84Q756.7 309.97 748.88 325.11Q744.49 335.36 741.56 339.76L740.58 341.71Q740.58 344.64 745.95 343.66Q698.1 360.27 676.62 374.91Q655.62 389.07 648.3 413.98Q646.83 418.37 646.83 422.77Q646.83 433.51 654.64 447.18Q664.9 467.2 704.94 492.59Q722.03 508.21 774.27 519.93ZM753.77 160.07Q758.65 145.91 760.6 127.84Q760.6 109.78 748.88 97.57L748.39 91.71L748.88 85.85Q759.14 49.72 792.83 48.74Q808.94 50.7 809.43 71.2Q807.96 93.66 793.8 115.15Q780.13 136.14 753.77 160.07ZM616.07 264.56Q613.14 264.56 613.14 256.75Q614.12 242.59 626.32 232.82Q639.02 222.57 659.04 216.71Q663.43 215.73 668.8 217.69Q674.18 219.15 677.11 222.08Q679.55 225.5 677.59 227.45Q648.79 243.57 616.07 264.56ZM761.58 371.98Q767.44 373.94 775.74 395.42Q784.04 416.42 785.02 434.48Q783.55 445.71 770.37 457.92Q757.67 470.13 744.98 472.08Q738.14 471.59 732.28 470.13Q684.43 454.02 668.8 429.6Q667.34 425.7 667.34 422.77Q667.34 413.98 678.57 405.68Q694.2 393.96 718.61 384.68Q734.23 373.94 744.98 372.47Q759.62 371.5 761.58 371.98Z" />
</svg>