<svg xmlns="http://www.w3.org/2000/svg" viewBox="0 0 1014 560" width="1014" height="560">
	<style>
		tspan { white-space:pre }
	</style>
	<path id="国学 " fill="#000000" d="M292.81 297.22C303.81 312.72 313.31 337.72 313.81 360.22C318.81 364.22 323.31 366.72 328.31 368.22L305.31 399.22L278.81 399.22L278.81 285.22L357.31 285.22C364.31 285.22 369.31 282.72 370.81 277.22C351.81 258.72 319.31 232.22 319.31 232.22L290.81 271.22L278.81 271.22L278.81 177.22L368.31 177.22C375.31 177.22 380.81 174.72 382.31 169.22C361.81 150.72 327.81 123.22 327.81 123.22L297.31 163.22L123.31 163.22L127.31 177.22L213.81 177.22L213.81 271.22L142.31 271.22L146.31 285.22L213.81 285.22L213.81 399.22L119.31 399.22L123.31 413.22L376.31 413.22C383.31 413.22 388.31 410.72 389.81 405.22C376.81 393.22 358.81 378.22 347.31 368.22C376.31 359.22 385.31 307.22 297.31 294.72ZM108.81 467.22L108.81 100.72L391.81 100.72L391.81 467.22ZM420.31 49.72L386.81 86.72L114.81 86.72L37.81 56.22L37.81 524.22L49.81 524.22C80.31 524.22 108.81 506.72 108.81 497.72L108.81 481.22L391.81 481.22L391.81 521.72L403.31 521.72C430.31 521.72 463.81 505.22 464.31 499.72L464.31 112.22C474.81 109.72 480.81 105.72 484.31 101.22ZM705.31 50.72C716.31 75.22 725.81 107.72 725.31 139.22C782.81 193.72 858.81 82.72 709.31 48.72ZM590.31 57.22C607.81 80.72 624.31 115.22 627.31 147.22C688.81 194.72 750.31 75.22 594.31 54.72ZM927.81 123.22L889.31 161.72L821.31 161.72C855.81 140.22 891.81 111.22 915.81 90.22C927.31 91.72 933.31 87.72 935.81 82.22L846.31 48.72C836.81 81.72 819.81 128.22 803.31 161.72L593.81 161.72C590.81 148.22 585.31 133.72 576.81 118.22L570.81 118.72C575.81 151.22 558.81 180.22 540.81 191.22C522.81 199.72 510.31 215.72 516.81 236.72C524.31 258.22 548.81 265.22 568.81 253.72C588.81 242.72 602.81 215.22 596.81 175.72L891.81 175.72C888.31 190.72 883.31 208.22 878.31 222.72L846.31 192.22L806.31 229.72L605.31 229.72L609.81 243.72L803.31 243.72C792.31 260.72 777.31 281.22 763.81 297.72L712.81 293.72L712.81 345.72L520.81 345.72L524.81 359.72L712.81 359.72L712.81 437.22C712.81 443.72 710.31 446.22 702.31 446.22C688.81 446.22 609.81 441.22 609.81 441.22L609.81 447.22C645.31 453.72 658.31 461.72 670.31 472.72C682.31 484.22 685.81 500.72 688.31 524.72C776.81 517.22 789.81 490.22 789.81 440.72L789.81 359.72L973.81 359.72C981.31 359.72 987.31 357.22 988.81 351.72C963.31 328.72 919.81 295.22 919.81 295.22L881.81 345.72L789.81 345.72L789.81 314.22C800.31 312.22 805.31 308.72 806.31 301.22L791.81 300.22C825.81 288.22 864.81 272.72 890.81 260.72C901.81 259.72 906.81 258.22 910.81 253.72L888.31 232.22C917.31 221.72 952.31 205.22 973.81 192.22C984.81 191.72 989.81 190.22 993.81 185.22Z" />
</svg>