<svg xmlns="http://www.w3.org/2000/svg" viewBox="0 0 1014 560" width="1014" height="560">
	<style>
		tspan { white-space:pre }
	</style>
	<path id="国学 " fill="#000000" d="M130.31 86.72Q132.31 80.72 142.81 65.22Q153.81 49.72 155.81 49.72Q158.81 49.72 165.31 56.22Q171.81 62.22 173.31 66.72Q176.81 75.72 175.81 81.22Q175.31 86.72 168.31 101.72Q159.31 121.22 155.81 128.72Q154.31 133.22 152.31 140.72Q150.81 148.22 150.31 153.22Q150.31 158.22 151.81 158.72Q153.81 158.72 153.81 156.72Q153.81 153.72 173.81 133.22Q194.31 112.22 202.81 106.22Q212.81 99.72 213.81 98.22Q215.81 96.22 230.31 87.72Q244.81 78.72 251.81 75.22Q261.31 70.72 262.31 68.72Q263.81 66.72 269.31 68.22Q274.81 69.22 291.31 63.22Q307.81 57.22 321.81 55.72Q332.31 54.72 350.81 57.22Q369.31 59.72 369.31 62.22Q369.31 63.72 378.31 65.72Q387.31 67.22 395.81 73.72Q404.31 80.22 406.31 80.22Q409.31 80.22 418.31 94.72Q427.81 109.22 429.81 117.22Q432.81 127.22 430.81 141.22Q429.31 155.22 428.31 190.72Q427.31 225.72 425.81 243.72Q424.81 261.72 423.81 316.22Q422.31 383.72 418.81 409.72Q414.81 441.22 407.81 465.22Q400.81 488.72 394.31 491.22Q388.31 493.22 388.31 496.22Q388.31 498.72 377.81 497.22Q367.81 495.22 361.81 487.72Q355.81 480.22 349.31 473.72Q343.31 467.22 341.81 463.22Q340.31 459.22 337.81 460.72Q336.81 461.22 335.81 460.22Q335.31 459.22 335.31 457.22Q335.31 452.22 328.81 442.22Q322.81 431.72 319.81 423.22Q316.81 414.72 310.81 414.22Q305.31 413.22 285.81 418.22Q264.81 423.22 262.81 422.22Q261.31 420.72 251.31 423.22Q241.81 425.72 221.31 429.22Q200.81 432.22 184.81 436.22Q169.31 440.22 147.81 442.72L126.31 445.22L119.31 437.72Q112.81 430.22 109.81 430.22Q105.81 430.22 96.31 418.22Q87.31 405.72 82.31 393.72Q75.31 376.72 71.81 376.72Q68.31 376.72 69.81 374.22Q71.81 371.72 68.81 366.22Q65.81 360.22 67.31 355.72Q69.81 350.72 70.31 343.72Q71.31 336.72 72.31 306.72Q73.81 269.22 77.31 256.22Q81.31 243.22 79.81 240.22Q78.81 236.72 81.31 228.72Q83.81 220.72 84.31 217.22Q84.81 213.22 87.81 202.72Q91.31 191.72 91.81 189.22Q93.81 171.22 123.81 103.22Q128.81 92.22 130.31 86.72ZM361.31 79.22Q337.81 72.72 314.81 76.72Q304.81 78.72 297.31 78.22Q290.31 77.72 290.31 79.22Q291.81 80.72 287.81 82.22Q282.81 84.22 282.31 83.22Q282.31 82.72 283.31 81.22Q284.81 78.72 282.81 79.22Q280.31 79.72 267.31 85.72Q252.81 92.22 232.81 104.22Q213.31 115.72 207.31 120.72Q201.81 125.72 201.81 122.72Q201.81 119.72 199.31 121.22Q197.31 122.72 198.81 125.22Q200.31 127.72 195.81 132.72Q191.81 137.22 189.31 135.72Q187.81 134.72 183.31 139.72Q179.31 144.72 178.81 148.22Q178.81 150.22 173.81 152.72Q168.81 155.22 160.81 168.22Q152.81 181.22 149.81 184.22Q142.31 191.72 137.31 211.22Q132.81 230.72 127.31 275.22Q125.81 288.72 125.81 335.22Q126.31 381.22 127.81 390.22Q130.31 401.72 131.81 403.72Q133.81 405.72 139.81 402.22Q146.81 398.72 147.81 399.72Q148.31 399.72 147.31 400.72Q146.81 401.22 145.31 402.22Q144.31 402.72 142.81 403.72Q136.81 406.72 136.81 408.72Q136.81 409.72 136.81 410.22Q137.31 410.72 137.81 410.72Q138.81 410.72 140.31 410.22Q141.81 409.72 143.81 408.72Q147.81 406.22 191.81 395.22Q235.81 383.72 242.31 380.22Q249.31 376.72 253.31 376.72Q257.31 376.72 264.81 373.72Q272.81 370.22 282.81 371.72Q289.81 372.72 290.31 372.22Q291.31 371.72 287.81 368.22Q283.31 363.22 280.81 359.22Q278.81 356.22 276.31 356.22Q273.81 356.22 263.81 358.72Q249.31 362.72 242.81 363.72Q236.31 364.72 226.81 367.22Q219.31 369.22 208.81 370.72Q198.31 371.72 190.31 371.72Q182.81 371.22 182.81 369.72Q182.81 367.22 179.31 367.22Q176.31 367.22 169.31 360.22Q164.81 355.22 163.81 352.22Q163.31 349.22 164.31 340.22Q165.31 331.22 167.31 328.22Q169.81 324.72 178.31 318.72Q191.31 310.22 193.31 307.72Q195.81 305.22 204.81 298.72Q212.31 293.22 212.31 288.22Q212.81 282.72 205.81 268.22L199.31 254.22L188.81 255.22Q182.31 255.72 179.81 255.22Q177.31 254.22 175.31 251.22Q173.81 247.72 174.31 245.22Q175.31 242.72 179.81 236.72Q184.81 230.72 187.81 229.22Q190.81 227.72 196.81 227.72Q205.81 228.22 214.81 223.72Q223.81 219.22 229.81 216.72Q233.81 215.72 234.81 213.22Q235.81 210.72 236.31 203.72Q236.31 192.72 236.81 184.72L236.81 177.22L214.31 176.22Q195.81 175.72 189.31 173.72Q182.81 171.72 182.81 166.22Q182.81 163.72 185.31 162.72Q188.31 161.22 197.31 160.72Q212.31 158.72 219.81 158.72Q227.31 158.72 234.81 153.72Q239.81 149.72 237.81 150.22Q235.31 150.72 234.81 150.22Q234.31 149.72 235.81 147.22Q238.31 143.22 239.31 138.72Q240.81 134.22 246.31 136.22Q251.81 138.22 261.81 137.72Q272.31 136.72 280.81 143.72Q288.31 149.72 288.81 152.72Q289.31 155.72 283.81 158.22Q269.81 164.72 267.31 167.22Q264.81 169.72 262.81 178.72Q260.31 190.72 260.31 198.22Q260.31 203.22 261.31 204.22Q262.31 205.22 266.81 204.22Q290.31 199.22 303.81 202.72Q316.31 205.22 321.81 211.72Q326.81 216.72 325.31 222.22Q324.31 227.72 315.31 239.22L308.81 247.72L318.81 256.72Q328.81 265.72 331.81 265.72Q335.31 265.72 339.81 275.72Q344.81 285.22 344.81 292.22Q344.81 296.72 343.31 298.72Q342.31 300.22 338.81 300.72Q332.81 302.22 331.31 301.22Q329.81 299.72 321.31 305.72Q316.81 308.72 312.31 310.22Q307.81 311.22 304.81 310.72Q302.31 309.72 302.31 306.72Q302.31 303.22 297.81 303.72Q294.81 304.22 296.31 302.22Q297.31 300.22 302.31 296.22Q311.81 287.72 313.81 286.72Q315.31 286.22 311.81 273.72Q308.31 260.72 305.31 256.22Q303.31 253.22 295.31 260.72Q287.81 268.22 286.81 267.72Q285.81 267.22 274.81 277.72Q267.81 284.72 265.81 288.72Q263.81 292.22 263.31 299.22Q262.81 310.22 265.31 313.72Q268.31 316.72 278.31 317.72Q297.31 319.72 302.81 321.22Q308.81 322.72 312.81 326.72L318.81 332.72L311.81 340.22Q304.31 347.72 299.31 347.72Q294.31 347.72 292.81 350.22Q291.81 352.22 306.31 367.22Q321.31 381.72 324.31 381.72Q326.81 381.72 333.31 389.72Q340.31 397.22 340.31 399.72Q340.31 402.72 347.31 410.72Q354.31 418.22 356.81 418.22Q359.31 418.22 359.31 416.72Q359.31 414.72 361.81 400.22Q364.31 385.22 365.31 370.72Q366.81 356.22 368.31 343.22Q369.31 329.72 370.31 304.22Q374.31 201.22 384.31 127.22Q386.81 106.22 385.31 100.22Q383.81 93.72 376.81 87.72Q370.31 81.72 361.31 79.22ZM267.31 248.72Q268.81 248.72 281.81 235.22Q294.81 221.72 293.81 220.72Q292.81 219.72 279.31 223.72Q266.31 227.22 264.31 228.72Q262.81 230.22 263.81 239.72Q265.31 248.72 267.31 248.72ZM229.81 265.22Q231.31 263.72 232.31 252.72Q233.81 241.22 231.81 241.22Q228.31 241.72 221.31 245.22Q214.31 248.72 214.31 250.72Q214.31 252.72 221.31 259.72Q228.81 266.22 229.81 265.22ZM238.31 326.72Q240.31 324.72 240.31 323.72Q240.31 322.22 236.81 319.22Q233.31 315.72 231.31 316.22Q229.81 316.22 222.81 321.72Q212.81 329.22 209.31 331.22Q202.31 334.72 210.31 334.72Q214.81 334.72 221.81 333.22Q234.81 330.22 238.31 326.72ZM723.31 396.72Q723.31 394.22 734.31 386.22Q745.31 378.22 747.81 378.22Q750.31 378.22 738.81 387.22Q738.81 387.22 734.81 390.22Q731.31 392.72 727.31 396.22Q723.31 399.22 723.31 396.72ZM771.81 266.22Q772.81 262.22 781.31 270.72Q786.31 276.72 784.31 276.72Q782.31 276.22 776.81 272.22Q771.81 267.72 771.81 266.22ZM820.31 127.22Q837.81 120.72 836.81 123.22Q835.81 124.22 828.31 128.22Q796.31 143.22 789.31 143.22Q785.81 143.22 785.81 145.72Q785.81 147.72 782.31 147.72Q773.31 147.72 783.81 141.22Q790.81 137.72 801.81 133.72Q807.31 132.22 820.31 127.22ZM857.81 114.72Q862.81 113.72 863.31 113.22L863.81 115.22Q863.81 116.22 857.31 119.22Q851.31 122.22 848.31 122.22Q844.81 122.22 852.31 117.22Q855.81 115.22 857.81 114.72ZM868.31 113.22Q871.31 111.22 884.31 111.22Q892.81 110.72 897.31 112.22Q902.31 113.72 910.31 118.22Q922.81 125.72 927.81 135.22Q932.31 142.72 932.31 150.22Q932.81 157.22 928.31 159.22Q910.81 168.22 903.81 168.22Q898.81 168.22 889.81 172.22Q881.31 175.72 874.81 176.72Q868.31 177.22 858.31 183.22Q848.81 188.72 847.31 187.72Q845.81 186.22 836.31 193.72Q827.31 200.72 825.81 200.72Q824.81 200.72 817.81 208.72Q810.81 216.22 802.81 221.72Q794.81 227.22 794.81 229.72Q794.81 231.72 786.31 240.22Q777.81 248.22 774.81 249.22Q772.31 250.22 771.31 257.22Q770.81 263.72 768.81 265.22Q768.31 265.72 769.81 267.72Q771.31 269.22 774.31 271.72Q777.31 274.22 781.31 277.22Q802.81 292.72 810.31 302.72Q817.81 312.22 821.31 327.72Q821.81 330.72 822.81 332.22Q824.31 333.72 824.81 332.72Q827.31 331.72 827.31 334.22Q827.31 336.72 830.81 335.72Q832.81 334.72 832.81 335.22Q833.31 335.72 831.31 339.22Q828.81 344.72 827.81 341.72Q826.81 338.72 823.31 342.22Q819.81 345.72 821.31 347.72Q822.81 350.72 825.81 350.22Q829.31 349.72 830.31 346.72Q831.31 343.22 834.81 343.22Q838.81 343.22 838.81 341.22Q838.81 338.72 845.81 336.72Q853.31 334.72 855.81 336.22Q858.31 337.72 863.81 337.72Q885.31 338.72 893.81 343.22Q898.31 345.72 902.81 352.22Q907.81 358.22 907.81 361.72Q907.81 365.22 902.31 369.22Q897.31 373.22 892.81 373.22Q889.81 373.22 870.31 379.22Q851.31 384.72 838.81 388.72Q825.81 392.22 814.81 397.22Q804.31 401.72 804.31 403.72Q804.31 405.72 811.81 416.72Q828.31 440.22 831.31 466.72Q835.31 509.72 808.81 527.22Q802.81 531.72 798.81 532.72Q794.81 533.72 786.31 532.72Q773.31 532.22 765.81 528.72Q758.81 525.22 746.81 512.22Q734.81 498.72 729.81 488.72Q724.81 478.22 720.81 475.22Q716.81 472.22 716.81 469.72Q716.81 466.72 708.31 460.72Q700.31 454.72 694.81 453.72Q687.81 452.72 684.81 446.22Q677.31 430.72 696.81 417.72Q706.31 411.22 711.81 406.22Q716.31 402.22 717.31 402.22Q718.31 402.22 719.81 405.72Q721.81 410.22 723.31 409.72Q725.31 409.22 727.31 403.22Q729.81 396.72 740.31 391.72Q750.81 386.72 753.31 383.72Q756.31 380.22 759.31 380.22Q761.81 380.22 764.81 376.72Q768.31 373.22 766.81 372.22Q765.31 370.72 760.31 373.72Q755.31 376.22 754.31 374.72Q753.81 374.72 754.31 374.22Q754.81 373.22 756.31 372.22Q757.81 371.22 759.31 370.72Q765.81 367.72 766.31 360.22Q766.81 352.72 772.31 341.72Q777.81 330.72 781.31 320.72L784.31 310.22L771.81 298.72Q758.81 286.72 752.81 277.72Q748.81 271.22 747.81 267.22Q746.81 263.22 747.81 253.72Q748.81 239.22 750.31 237.72Q752.31 235.72 774.31 223.72Q796.31 211.72 799.81 207.72Q803.31 203.72 840.81 178.72Q859.81 166.22 872.31 156.72Q885.31 147.22 890.81 141.72Q896.81 135.72 895.31 134.72Q894.31 133.22 884.81 133.22Q875.81 133.22 867.31 134.72Q842.81 138.72 837.81 141.22Q833.81 143.22 830.31 142.22Q827.31 140.72 827.31 143.22Q827.31 145.72 823.81 144.72Q820.81 143.22 813.31 147.72Q806.31 152.22 804.81 151.72Q802.31 151.22 779.31 161.72Q764.31 168.22 762.31 167.22Q760.31 165.72 760.31 168.22Q760.31 170.72 757.81 169.72Q755.81 168.22 750.81 170.72Q746.81 172.72 746.81 171.72Q746.31 169.22 753.31 164.72Q759.81 161.22 797.31 145.72Q814.31 138.22 819.31 136.22Q824.81 133.22 842.81 127.72Q860.81 122.22 872.31 120.22Q885.81 117.22 892.81 115.22L899.81 113.72L892.81 113.22Q885.81 113.22 878.31 115.22Q867.31 118.22 866.81 115.22Q866.81 114.22 868.31 113.22ZM783.81 417.72Q779.31 412.22 773.81 412.72Q769.31 412.72 757.31 419.22Q745.31 425.22 735.31 432.22Q725.81 438.72 727.31 440.72Q728.81 443.22 741.31 448.72Q753.81 453.72 755.81 452.72Q758.31 451.22 759.31 454.72Q761.31 457.72 766.81 457.22Q772.81 456.22 779.31 452.22Q786.31 448.22 788.31 443.72Q790.81 438.72 789.31 430.72Q787.81 422.72 783.81 417.72ZM857.31 26.72Q857.31 21.72 858.81 21.72Q860.81 21.22 863.81 25.72Q866.31 30.22 868.81 29.22Q871.31 27.72 879.81 31.22Q888.81 34.22 893.31 38.22Q901.81 45.22 894.31 61.72Q889.81 70.72 880.81 75.22Q872.31 79.72 870.31 82.22Q868.81 84.22 868.81 82.72Q868.81 80.72 865.81 83.22Q862.31 85.72 842.81 98.72Q823.31 111.22 817.81 113.72Q812.31 116.72 810.81 118.22Q809.81 119.22 802.31 123.22Q797.31 125.72 789.81 131.22Q782.81 136.22 777.81 140.72Q772.81 144.72 774.31 145.22Q776.31 145.72 776.31 148.22Q776.31 150.22 773.81 148.72Q771.81 147.22 770.31 150.72Q769.31 154.22 761.31 157.22Q753.31 159.72 753.31 161.72Q753.31 163.72 749.81 163.72Q746.81 163.72 741.81 168.22Q736.81 172.22 739.31 171.72Q739.31 171.72 740.31 171.72Q744.31 170.22 744.31 172.22Q744.31 174.22 736.31 179.22Q728.31 184.22 725.81 184.22Q723.31 184.22 723.31 186.22Q723.31 188.22 716.31 189.72Q709.81 191.22 709.81 193.72Q709.81 196.22 712.31 194.72Q714.81 192.72 713.31 195.72Q711.81 198.72 708.81 197.22Q706.81 196.72 703.31 198.72Q700.31 200.22 698.31 202.72Q696.31 204.72 697.31 206.22Q698.31 206.72 697.81 206.72Q697.31 206.72 695.81 206.22Q691.81 204.72 688.81 208.72Q686.31 212.22 687.81 212.22Q689.31 212.22 686.31 215.22Q683.31 218.22 680.31 217.22Q677.81 216.22 671.31 222.72Q666.31 227.72 667.81 227.22Q670.81 225.72 670.31 227.72Q670.31 229.22 650.31 244.22Q634.31 256.22 604.31 285.72Q574.81 314.72 568.81 324.22Q564.31 331.72 558.81 331.72Q546.31 331.72 546.31 325.72Q546.31 322.22 542.81 317.22Q539.81 312.22 538.81 286.72L538.31 261.72L543.81 262.22Q549.31 262.72 553.81 258.72Q557.31 256.22 556.81 257.72Q555.31 260.22 556.81 260.22Q558.81 260.22 567.31 252.22Q576.31 243.72 576.31 242.22Q576.31 239.72 588.31 228.72Q600.31 217.22 601.31 218.22Q602.31 219.22 598.81 221.72Q595.81 223.72 598.31 223.72Q600.81 223.72 605.31 218.72Q607.81 215.72 607.31 215.22Q607.31 215.22 606.31 215.72Q603.81 216.72 603.81 216.72Q603.81 216.22 605.81 213.72Q609.81 208.72 611.81 209.72Q612.81 210.72 611.31 212.72Q610.31 214.22 611.31 214.22Q611.81 213.72 613.81 212.22Q617.81 209.22 616.31 207.72Q615.31 205.72 619.31 202.72Q622.31 200.22 622.31 200.72Q622.31 200.72 620.31 203.72Q615.81 209.22 620.81 206.22Q623.81 204.72 629.81 200.22Q635.81 196.22 635.81 194.72Q635.81 194.22 634.31 194.72Q628.81 196.22 629.31 195.22Q630.31 193.22 639.81 186.72L648.81 181.22Q648.81 181.72 645.31 185.72L639.31 192.22L648.31 186.72Q656.81 181.22 656.81 179.22Q656.81 177.22 654.31 178.72Q652.81 179.72 653.31 178.22Q653.31 178.22 653.31 176.72Q654.81 173.72 667.31 164.72Q677.81 157.22 679.31 152.72Q680.81 147.72 675.31 139.72Q670.81 132.72 670.81 128.72Q670.81 124.72 667.81 120.22Q665.31 115.72 668.81 98.22Q675.81 66.72 670.81 61.22Q668.81 58.72 666.31 51.72Q664.31 44.22 667.81 43.22Q673.81 40.72 677.81 49.72Q679.81 55.72 684.31 55.72Q689.31 55.72 694.81 64.72Q700.81 73.22 703.31 83.72Q705.81 95.72 708.81 105.72Q711.81 115.72 711.81 122.72Q711.81 129.22 713.31 129.22Q715.81 129.22 721.31 124.72Q727.31 120.22 726.81 118.72Q725.81 116.72 731.31 113.22Q749.81 101.22 752.81 98.22Q755.81 95.22 754.31 88.22Q752.81 79.72 750.31 75.22Q748.31 70.72 749.81 58.72Q751.31 46.22 749.31 46.22Q747.81 46.22 745.81 41.72Q743.81 37.22 743.31 32.72Q743.31 29.72 739.81 28.22Q736.81 26.22 739.31 24.72Q742.31 22.72 747.31 27.22Q754.81 33.72 760.81 40.22Q767.31 46.72 767.31 48.72Q767.31 50.72 768.81 50.72Q770.81 50.72 774.81 57.72Q778.81 64.72 782.81 64.72Q786.31 64.72 803.31 56.72Q820.31 48.22 821.31 46.22Q822.31 44.72 820.81 44.72Q819.81 44.72 818.81 45.22Q817.81 45.72 818.31 45.22Q819.31 44.22 825.81 40.22Q837.31 34.22 844.31 33.72Q851.31 32.72 854.31 32.72Q857.31 32.22 857.31 26.72ZM596.81 225.72Q596.81 222.72 592.81 226.72Q592.81 226.72 586.31 233.22L577.31 242.72L587.31 235.22Q596.81 227.72 596.81 225.72Z" />
</svg>